<?xml version="1.0" standalone="no"?><!DOCTYPE svg PUBLIC "-//W3C//DTD SVG 1.1//EN" "http://www.w3.org/Graphics/SVG/1.1/DTD/svg11.dtd"><svg t="1624376619857" class="icon" viewBox="0 0 1024 1024" version="1.1" xmlns="http://www.w3.org/2000/svg" p-id="2302" xmlns:xlink="http://www.w3.org/1999/xlink" width="200" height="200"><defs><style type="text/css"></style></defs><path d="M773.92 736h-427.84a25.6 25.6 0 0 1-21.024-40.192l72.704-104.8a25.6 25.6 0 0 0 4.576-14.592V256h315.392v320.416a25.6 25.6 0 0 0 4.576 14.592l72.704 104.8A25.6 25.6 0 0 1 773.92 736z" fill="#CAE705" p-id="2303"></path><path d="M480 704a32 32 0 0 1 64 0v176a32 32 0 0 1-64 0V704z" fill="#2B82D8" p-id="2304"></path><path d="M716.608 672l-56.288-84.448a95.904 95.904 0 0 1-16.128-53.248V192h-256v342.304c0 18.944-5.6 37.472-16.128 53.248L315.808 672h400.8z m59.808 64H256a32 32 0 0 1-26.624-49.76l89.472-134.176a31.84 31.84 0 0 0 5.376-17.76V128h384v406.304a32 32 0 0 0 5.376 17.76l89.472 134.176A32.032 32.032 0 0 1 776.416 736z" fill="#2B82D8" p-id="2305"></path><path d="M288 128h448a32 32 0 0 1 0 64H288a32 32 0 0 1 0-64zM416 256a32 32 0 0 1 64 0v192a32 32 0 0 1-64 0V256z" fill="#2B82D8" p-id="2306"></path></svg>