<?xml version="1.0" standalone="no"?><!DOCTYPE svg PUBLIC "-//W3C//DTD SVG 1.1//EN" "http://www.w3.org/Graphics/SVG/1.1/DTD/svg11.dtd"><svg t="1625130589700" class="icon" viewBox="0 0 1024 1024" version="1.1" xmlns="http://www.w3.org/2000/svg" p-id="2932" xmlns:xlink="http://www.w3.org/1999/xlink" width="200" height="200"><defs><style type="text/css">html, * { user-select: text !important; }
</style></defs><path d="M512 512m-512 0a512 512 0 1 0 1024 0 512 512 0 1 0-1024 0Z" fill="#FBD646" p-id="2933" data-spm-anchor-id="a313x.7781069.0.i9" class=""></path><path d="M713.216 462.336H310.784c-27.648 0-49.664 22.528-49.664 49.664s22.528 49.664 49.664 49.664h402.432c27.648 0 49.664-22.528 49.664-49.664s-22.528-49.664-49.664-49.664z" fill="#333333" p-id="2934" data-spm-anchor-id="a313x.7781069.0.i11" class=""></path><path d="M462.336 310.784v402.432c0 27.648 22.528 49.664 49.664 49.664s49.664-22.528 49.664-49.664V310.784c0-27.648-22.528-49.664-49.664-49.664s-49.664 22.528-49.664 49.664z" fill="#333333" p-id="2935" data-spm-anchor-id="a313x.7781069.0.i10" class=""></path></svg>