<?xml version="1.0" standalone="no"?><!DOCTYPE svg PUBLIC "-//W3C//DTD SVG 1.1//EN" "http://www.w3.org/Graphics/SVG/1.1/DTD/svg11.dtd"><svg t="1624376596230" class="icon" viewBox="0 0 1024 1024" version="1.1" xmlns="http://www.w3.org/2000/svg" p-id="2158" xmlns:xlink="http://www.w3.org/1999/xlink" width="200" height="200"><defs><style type="text/css"></style></defs><path d="M281.6 608h76.8a25.6 25.6 0 0 1 25.6 25.6V832H256v-198.4a25.6 25.6 0 0 1 25.6-25.6zM505.6 320h76.8a25.6 25.6 0 0 1 25.6 25.6V832h-128V345.6a25.6 25.6 0 0 1 25.6-25.6zM729.6 448h76.8a25.6 25.6 0 0 1 25.6 25.6V832h-128V473.6a25.6 25.6 0 0 1 25.6-25.6z" fill="#CAE705" p-id="2159"></path><path d="M160 832a32 32 0 0 1 0-64h704a32 32 0 0 1 0 64H160z" fill="#2B82D8" p-id="2160"></path><path d="M256 576v192h32v-192H256z m-32-64h96a32 32 0 0 1 32 32v288H192v-288a32 32 0 0 1 32-32zM480 256v512h32V256h-32z m-32-64h96a32 32 0 0 1 32 32v608h-160V224a32 32 0 0 1 32-32zM704 416v352h32V416h-32z m-32-64h96a32 32 0 0 1 32 32v448h-160V384a32 32 0 0 1 32-32z" fill="#2B82D8" p-id="2161"></path></svg>