<?xml version="1.0" standalone="no"?><!DOCTYPE svg PUBLIC "-//W3C//DTD SVG 1.1//EN" "http://www.w3.org/Graphics/SVG/1.1/DTD/svg11.dtd"><svg t="1624608400737" class="icon" viewBox="0 0 1024 1024" version="1.1" xmlns="http://www.w3.org/2000/svg" p-id="1406" xmlns:xlink="http://www.w3.org/1999/xlink" width="200" height="200"><defs><style type="text/css">html, * { user-select: text !important; }
</style></defs><path d="M896 480V288a128 128 0 0 0-128-128H256a128 128 0 0 0-128 128v416a128 128 0 0 0 128 128h256v-64H256a64 64 0 0 1-64-64V288a64 64 0 0 1 64-64h512a64 64 0 0 1 64 64v192h64z m0 0V288a128 128 0 0 0-128-128H256a128 128 0 0 0-128 128v416a128 128 0 0 0 128 128h256v-64H256a64 64 0 0 1-64-64V288a64 64 0 0 1 64-64h512a64 64 0 0 1 64 64v192h64z" fill="#2B82D8" p-id="1407"></path><path d="M320 384a32 32 0 0 1 0-64h352a32 32 0 0 1 0 64H320z" fill="#2B82D8" p-id="1408"></path><path d="M512 800m-32 0a32 32 0 1 0 64 0 32 32 0 1 0-64 0Z" fill="#2B82D8" p-id="1409"></path><path d="M864 480m-32 0a32 32 0 1 0 64 0 32 32 0 1 0-64 0Z" fill="#2B82D8" p-id="1410"></path><path d="M320 544a32 32 0 0 1 0-64h160a32 32 0 0 1 0 64h-160z" fill="#2B82D8" p-id="1411"></path><path d="M672 672h224a32 32 0 0 1 0 64h-224a32 32 0 0 1 0-64z" fill="#CAE705" p-id="1412"></path><path d="M816 592v224a32 32 0 0 1-64 0v-224a32 32 0 0 1 64 0z" fill="#CAE705" p-id="1413"></path><path d="M640 640h224a32 32 0 0 1 0 64h-224a32 32 0 0 1 0-64z" fill="#2B82D8" p-id="1414"></path><path d="M784 560v224a32 32 0 0 1-64 0v-224a32 32 0 0 1 64 0z" fill="#2B82D8" p-id="1415"></path></svg>