<?xml version="1.0" standalone="no"?><!DOCTYPE svg PUBLIC "-//W3C//DTD SVG 1.1//EN" "http://www.w3.org/Graphics/SVG/1.1/DTD/svg11.dtd"><svg t="1624606415965" class="icon" viewBox="0 0 1024 1024" version="1.1" xmlns="http://www.w3.org/2000/svg" p-id="3730" xmlns:xlink="http://www.w3.org/1999/xlink" width="200" height="200"><defs><style type="text/css">html, * { user-select: text !important; }
</style></defs><path d="M511 136.5c-206.5 0-373.8 167.4-373.8 373.8S304.5 884.1 511 884.1s373.8-167.4 373.8-373.8S717.4 136.5 511 136.5zM719 541c-12.1 94.3-96.9 162.4-192 162.4H394.4c-8.8 0-15.9-7.1-15.9-15.9v-32.3c0-8.8 7.1-15.9 15.9-15.9H530c58.7 0 112.1-39.7 123.9-97.2 16.2-79.1-44.1-148.9-120.4-148.9H429.2v44.1l-75.8-63.8c-7.6-6.4-7.6-18.1 0-24.5l75.8-63.8v44.1h104.3c111.3 0 200.2 97.6 185.5 211.7z" fill="#FFFFFF" p-id="3731"></path></svg>